<svg width="42" height="42" viewBox="0 0 42 42" fill="none" xmlns="http://www.w3.org/2000/svg">
<path d="M1 35.0367V6.40265C1.43243 2.51274 5.14414 1.18009 6.94595 1H35.0541C39.3784 1 40.8198 4.60177 41 6.40265V35.0367C41 40.2233 36.3153 41.1597 33.973 40.9796H6.94595C2.62162 40.9796 1.18018 37.0177 1 35.0367Z" stroke="#000000"/>
<path d="M27 14.9811C27 10.1811 23 8.98114 21 8.98114C19 8.98114 15 10.1811 15 14.9811C15 19.7811 19 20.9811 21 20.9811C23 20.9811 27 19.7811 27 14.9811Z" stroke="#000000" fill="#000000"/>
<path d="M34 33.9811C34 23.5811 25.3333 20.9811 21 20.9811C16.6667 20.9811 8 23.5811 8 33.9811H34Z" stroke="#000000" fill="#000000"/>
</svg>
