<svg width="40" height="42" viewBox="0 0 40 42" fill="none" xmlns="http://www.w3.org/2000/svg">
<path d="M1 18.917V35.4793C1 40.3866 6.24138 41 7.55172 41H14.7586V25.6646C14.977 24.0288 16.331 20.7573 20 20.7573C23.669 20.7573 25.023 24.0288 25.2414 25.6646V41H32.4483C37.6897 41 39 37.3195 39 35.4793V18.917C39 15.9726 36.3793 13.1918 35.069 12.1694C32.6667 9.92026 27.0759 4.80846 23.931 2.35479C20.7862 -0.0988691 17.3793 1.33243 16.069 2.35479C13.2299 4.80846 6.89655 10.2065 4.27586 12.1694C1.65517 14.1324 1 17.4857 1 18.917Z" stroke="#000000" fill="#000000"/>
</svg>