<svg width="42" height="42" viewBox="0 0 42 42" fill="none" xmlns="http://www.w3.org/2000/svg">
<circle cx="21" cy="29" r="0.5" fill="#9C9C9C" stroke="black"/>
<circle cx="12" cy="29" r="0.5" fill="#9C9C9C" stroke="black"/>
<circle cx="12" cy="19" r="0.5" fill="#9C9C9C" stroke="black"/>
<circle cx="21" cy="19" r="0.5" fill="#9C9C9C" stroke="black"/>
<circle cx="30" cy="19" r="0.5" fill="#9C9C9C" stroke="black"/>
<circle cx="30" cy="29" r="0.5" fill="#9C9C9C" stroke="black"/>
<path d="M1 35.0367V6.40265C1.43243 2.51274 5.14414 1.18009 6.94595 1H35.0541C39.3784 1 40.8198 4.60177 41 6.40265V35.0367C41 40.2233 36.3153 41.1597 33.973 40.9796H6.94595C2.62162 40.9796 1.18018 37.0177 1 35.0367Z" stroke="#000000"/>
<path d="M35.0541 1C39.3784 1 40.8198 4.7037 41 6.55556V11H1V6.55556C1.43243 2.55556 5.14414 1.18519 6.94595 1H35.0541Z" stroke="#000000" fill="#000000"/>
</svg>